<svg width="149.497" height="149.497" xmlns="http://www.w3.org/2000/svg">

 <g>
  <title>background</title>
  <rect fill="none" id="canvas_background" height="402" width="582" y="-1" x="-1"/>
 </g>
 <g>
  <title>Layer 1</title>
  <path transform="rotate(-23.766565322875977 74.04674530029294,74.27737426757812) " id="svg_1" fill="#FFFFFF" d="m123.23925,96.59788l-98.385,0c-12.227,0 -22.173,-9.946 -22.173,-22.172l0,-0.297c0,-12.226 9.946,-22.172 22.173,-22.172l98.385,0c12.227,0 22.173,9.946 22.173,22.172l0,0.297c0,12.225 -9.947,22.172 -22.173,22.172zm-98.385,-29.642c-3.955,0 -7.173,3.217 -7.173,7.172l0,0.297c0,3.955 3.218,7.172 7.173,7.172l98.385,0c3.955,0 7.173,-3.217 7.173,-7.172l0,-0.297c0,-3.955 -3.218,-7.172 -7.173,-7.172l-98.385,0z"/>
  <g transform="rotate(-22.995019912719727 74.39762115478511,73.69586181640625) " id="svg_2">
   <path id="svg_3" fill="#FFFFFF" d="m74.397123,43.589368c-12.308,0 -22.321,-10.013 -22.321,-22.321s10.014,-22.321 22.321,-22.321s22.322,10.013 22.322,22.321s-10.014,22.321 -22.322,22.321zm0,-29.642c-4.037,0 -7.321,3.284 -7.321,7.321s3.284,7.321 7.321,7.321s7.321,-3.284 7.321,-7.321s-3.284,-7.321 -7.321,-7.321z"/>
   <path id="svg_4" fill="#FFFFFF" d="m74.397123,148.444368c-12.308,0 -22.321,-10.013 -22.321,-22.321s10.014,-22.321 22.321,-22.321s22.321,10.013 22.321,22.321s-10.013,22.321 -22.321,22.321zm0,-29.642c-4.037,0 -7.321,3.284 -7.321,7.321s3.284,7.321 7.321,7.321s7.321,-3.284 7.321,-7.321s-3.284,-7.321 -7.321,-7.321z"/>
  </g>
  <g id="svg_5"/>
  <g id="svg_6"/>
  <g id="svg_7"/>
  <g id="svg_8"/>
  <g id="svg_9"/>
  <g id="svg_10"/>
  <g id="svg_11"/>
  <g id="svg_12"/>
  <g id="svg_13"/>
  <g id="svg_14"/>
  <g id="svg_15"/>
  <g id="svg_16"/>
  <g id="svg_17"/>
  <g id="svg_18"/>
  <g id="svg_19"/>
 </g>
</svg>